<?xml version="1.0" encoding="UTF-8"?>
<svg id="Layer_1" data-name="Layer 1" xmlns="http://www.w3.org/2000/svg" version="1.1" viewBox="0 0 240 240">
  <defs>
    <style>
      .cls-1 {
        fill-rule: evenodd;
      }

      .cls-1, .cls-2 {
        fill: #231f20;
        stroke-width: 0px;
      }
    </style>
  </defs>
  <g>
    <path class="cls-1" d="M229.7,156.2c-4.7-3.2-9.6-5.8-14.8-7.8-8-3.1-16.4-4.7-24.9-5.5-11.7-1.1-23.4-1-35,.4-11.3,1.4-22.5,3.3-33.7,5.1-12.7,2.1-25.4,4.6-38.1,6.5-13.7,2-27.5,2.4-41.3.7-7.1-.9-14-2.4-20.2-6.1-6-3.6-9.5-8.8-10.2-15.8-.6-5.8,1.6-10.7,5.5-14.8,3.8-4.1,8.6-6.9,13.2-10,3.4-2.2,6.7-4.4,9.9-6.9,2.7-2,4.7-4.6,5-8.2.5-5.3-2.8-9.3-8.2-10.1-1.7-.2-3.4-.2-5.5-.3,1.5-.3,2.5-.6,3.6-.7,4.6-.5,8.9.2,12.8,2.8,5.4,3.7,6,10.2,1.2,14.6-2,1.9-4.5,3.3-6.9,4.8-1.8,1.2-3.8,2.1-5.6,3.2-1.2.7-2.3,1.4-3.4,2.3-3.1,2.5-4.7,5.6-3.4,10-2.5-2.2-2.4-4.6-1.5-7.1-6.5,4.4-9.7,11.8-7.5,19,1.9,6,5.8,10.3,10.9,13.7,5.9,3.9,12.5,5.7,19.4,6.5,11.3,1.4,22.6.2,33.8-1.5,15.8-2.5,31.2-6.5,46.7-10.1,11.4-2.7,22.9-4.8,34.7-5.7,12.1-.9,24.1-.7,35.9,2.5,10.9,3,20.4,8.3,27.1,17.7.1.2.3.4.4.6Z"/>
    <path class="cls-1" d="M50.3,149.7c-2.8-.1-5.4-.8-7.8-2.1-6.9-3.9-11.3-9.6-12.4-17.6,0-.6,0-1.3,0-2,.6-4.5,3.1-5.8,7-3.6.9.5,1.7,1,2.6,1.3,2,.8,3.2.2,3.8-1.8.4-1.3.5-2.7,2.5-2.6.2,0,.5-1,.8-1.6-.1,0-.2-.1-.3-.2.3-.1.6-.2.9-.3,1.1-.3,1.4-.9.8-1.9-.6-1.1-.3-1.7,1-1.9.5,0,1-.3,1.5-.5,1-.4,1.4-1.1,1.1-2.1-.2-.6-.4-1.3-.6-1.9-1.1-2.2-1.1-4.5-.3-6.8.5-1.5,1.1-3,1.6-4.5,1.3-4.3,1.4-5.7.5-10.6.7,1.6,1.6,3.1,2.1,4.7,3.6,11.4,2.5,22.2-4.2,32.3-1.9,2.9-3.7,5.8-5.2,8.8-2.2,4.3-1.4,8.3,1.9,11.8.9.9,1.7,1.8,2.8,2.9Z"/>
    <g>
      <path class="cls-2" d="M77.9,125.9c.4,0,.9,0,1.5,0,.8,0,1.3,0,1.7.3.3.2.5.4.5.8s-.4.8-1.1.9h0c.6.1,1.3.5,1.3,1.1s-.2.7-.5.9c-.4.3-1.2.4-2.2.4s-1,0-1.3,0v-4.3ZM78.8,127.6h.7c.9,0,1.4-.3,1.4-.7s-.6-.7-1.4-.7-.6,0-.7,0v1.4ZM78.8,129.7c.2,0,.4,0,.7,0,.8,0,1.6-.2,1.6-.8s-.7-.8-1.6-.8h-.7v1.6Z"/>
      <path class="cls-2" d="M91.9,128.1h-2.5v1.6h2.7v.5h-3.6v-4.3h3.4v.5h-2.6v1.4h2.5v.5Z"/>
      <path class="cls-2" d="M99.9,128.8l-.7,1.4h-.8l2.1-4.3h1l2.2,4.3h-.9l-.7-1.4h-2.2ZM102,128.3l-.6-1.2c-.1-.3-.2-.5-.3-.8h0c0,.3-.2.5-.3.8l-.6,1.3h1.9Z"/>
      <path class="cls-2" d="M110.8,125.8v2.6c0,1,.6,1.4,1.5,1.4s1.5-.4,1.5-1.4v-2.6h.8v2.5c0,1.3-1,1.9-2.4,1.9s-2.3-.5-2.3-1.8v-2.5h.8Z"/>
      <path class="cls-2" d="M122.9,126.3h-1.9v-.5h4.7v.5h-1.9v3.8h-.8v-3.8Z"/>
      <path class="cls-2" d="M133.7,130.1v-1.8l-2-2.5h.9l.9,1.2c.2.3.4.6.6.9h0c.2-.3.4-.6.6-.9l.9-1.2h.9l-2.1,2.5v1.8h-.8Z"/>
      <path class="cls-2" d="M150.5,129.4c.4.2.9.3,1.5.3.8,0,1.3-.3,1.3-.7s-.3-.6-1.2-.9c-1-.2-1.7-.6-1.7-1.2s.8-1.2,2-1.2,1.1.1,1.4.2l-.2.5c-.2,0-.6-.2-1.2-.2-.9,0-1.2.4-1.2.6s.4.6,1.3.8c1.1.3,1.6.6,1.6,1.3s-.7,1.2-2.2,1.2-1.3-.1-1.6-.3l.2-.5Z"/>
      <path class="cls-2" d="M161.8,128.8l-.7,1.4h-.8l2.1-4.3h1l2.2,4.3h-.9l-.7-1.4h-2.2ZM163.9,128.3l-.6-1.2c-.1-.3-.2-.5-.3-.8h0c0,.3-.2.5-.3.8l-.6,1.3h1.9Z"/>
      <path class="cls-2" d="M172.2,125.8h.8v3.9h2.7v.5h-3.5v-4.3Z"/>
      <path class="cls-2" d="M187.3,127.9c0,1.5-1.3,2.3-2.9,2.3s-2.8-.9-2.8-2.2,1.2-2.3,2.9-2.3,2.8.9,2.8,2.2ZM182.4,128c0,.9.7,1.8,2,1.8s2-.8,2-1.8-.7-1.8-2-1.8-2,.9-2,1.8Z"/>
      <path class="cls-2" d="M194,130.1v-4.3h.9l2,2.2c.5.5.8,1,1.1,1.4h0c0-.6,0-1.1,0-1.8v-1.8h.8v4.3h-.8l-2-2.2c-.4-.5-.9-1-1.2-1.4h0c0,.6,0,1.1,0,1.8v1.8h-.8Z"/>
    </g>
  </g>
  <g>
    <path class="cls-2" d="M85,90.6l6.9,20.3,6.9-20.3h9.8v30h-7.4v-18.4l-6.5,18.3h-5.7l-6.4-18.3v18.4h-7.5v-30h9.8Z"/>
    <path class="cls-2" d="M120,119.3c-2.2-1.3-3.9-3.1-5.1-5.4-1.2-2.3-1.8-5.1-1.8-8.3s.6-6,1.8-8.4c1.2-2.4,2.9-4.2,5.1-5.4s4.9-1.9,7.9-1.9,5.6.6,7.8,1.9,4,3.1,5.1,5.4c1.2,2.4,1.8,5.1,1.8,8.4s-.6,5.9-1.8,8.3c-1.2,2.3-2.9,4.2-5.1,5.4s-4.8,1.9-7.8,1.9-5.6-.6-7.9-1.9ZM131.8,114c1.1-.7,1.9-1.8,2.4-3.2.5-1.4.8-3.1.8-5.2s-.3-3.8-.8-5.2c-.5-1.4-1.3-2.5-2.4-3.3-1.1-.7-2.4-1.1-3.9-1.1s-2.8.4-3.9,1.1c-1.1.7-1.9,1.8-2.4,3.3-.5,1.4-.8,3.2-.8,5.2s.3,3.8.8,5.2c.5,1.4,1.4,2.5,2.4,3.2,1.1.7,2.4,1.1,3.9,1.1s2.9-.4,3.9-1.1Z"/>
    <path class="cls-2" d="M152.8,119.3c-2.2-1.3-3.9-3.1-5.1-5.4-1.2-2.3-1.8-5.1-1.8-8.3s.6-6,1.8-8.4c1.2-2.4,2.9-4.2,5.1-5.4s4.9-1.9,7.9-1.9,5.6.6,7.8,1.9,4,3.1,5.1,5.4c1.2,2.4,1.8,5.1,1.8,8.4s-.6,5.9-1.8,8.3c-1.2,2.3-2.9,4.2-5.1,5.4s-4.8,1.9-7.8,1.9-5.6-.6-7.9-1.9ZM164.5,114c1.1-.7,1.9-1.8,2.4-3.2.5-1.4.8-3.1.8-5.2s-.3-3.8-.8-5.2c-.5-1.4-1.3-2.5-2.4-3.3-1.1-.7-2.4-1.1-3.9-1.1s-2.8.4-3.9,1.1c-1.1.7-1.9,1.8-2.4,3.3-.5,1.4-.8,3.2-.8,5.2s.3,3.8.8,5.2c.5,1.4,1.4,2.5,2.4,3.2,1.1.7,2.4,1.1,3.9,1.1s2.9-.4,3.9-1.1Z"/>
    <path class="cls-2" d="M187,90.6l10.8,18.7v-18.7h7.4v30h-8.1l-10.5-17.9v17.9h-7.5v-30h7.8Z"/>
  </g>
</svg>